{
  "accessors": [
    {
      "bufferView": 2,
      "componentType": 5126,
      "count": 65532,
      "max": [
        62.076915740966797,
        14.426541328430176,
        126.69465637207031
      ],
      "min": [
        -38.159046173095703,
        -12.782134056091309,
        -145.86979675292969
      ],
      "type": "VEC3"
    },
    {
      "bufferView": 2,
      "byteOffset": 786384,
      "componentType": 5126,
      "count": 65532,
      "max": [
        0.99962258338928223,
        0.99999046325683594,
        0.9999881386756897
      ],
      "min": [
        -0.99943703413009644,
        -0.99560332298278809,
        -0.99961858987808228
      ],
      "type": "VEC3"
    },
    {
      "bufferView": 3,
      "componentType": 5126,
      "count": 65532,
      "max": [
        0.65882354974746704,
        0.69803923368453979,
        0.729411780834198,
        1
      ],
      "min": [
        0.11372549086809158,
        0.15686275064945221,
        0.090196080505847931,
        1
      ],
      "type": "VEC4"
    },
    {
      "bufferView": 1,
      "componentType": 5126,
      "count": 65532,
      "max": [
        0.99973410367965698,
        0.99999666213989258
      ],
      "min": [
        2.968187118312926e-07,
        0.00010591400496196002
      ],
      "type": "VEC2"
    },
    {
      "bufferView": 0,
      "componentType": 5125,
      "count": 205014,
      "max": [
        65531
      ],
      "min": [
        0
      ],
      "type": "SCALAR"
    },
    {
      "bufferView": 2,
      "byteOffset": 1572768,
      "componentType": 5126,
      "count": 65532,
      "max": [
        60.77630615234375,
        -0.045936565846204758,
        -32.954517364501953
      ],
      "min": [
        -35.18170166015625,
        -7.2870931625366211,
        -84.502532958984375
      ],
      "type": "VEC3"
    },
    {
      "bufferView": 2,
      "byteOffset": 2359152,
      "componentType": 5126,
      "count": 65532,
      "max": [
        0.99999326467514038,
        0.99999284744262695,
        0.99994105100631714
      ],
      "min": [
        -0.99989569187164307,
        -0.99930000305175781,
        -0.99865692853927612
      ],
      "type": "VEC3"
    },
    {
      "bufferView": 3,
      "byteOffset": 1048512,
      "componentType": 5126,
      "count": 65532,
      "max": [
        0.65490198135375977,
        0.69803923368453979,
        0.73333334922790527,
        1
      ],
      "min": [
        0.14901961386203766,
        0.14117647707462311,
        0.10196078568696976,
        1
      ],
      "type": "VEC4"
    },
    {
      "bufferView": 1,
      "byteOffset": 524256,
      "componentType": 5126,
      "count": 65532,
      "max": [
        0.99973845481872559,
        0.99999457597732544
      ],
      "min": [
        1.7691758330329321e-05,
        0.00025572523009032011
      ],
      "type": "VEC2"
    },
    {
      "bufferView": 0,
      "byteOffset": 820056,
      "componentType": 5125,
      "count": 189528,
      "max": [
        65531
      ],
      "min": [
        0
      ],
      "type": "SCALAR"
    },
    {
      "bufferView": 2,
      "byteOffset": 3145536,
      "componentType": 5126,
      "count": 65532,
      "max": [
        63.925968170166016,
        4.2315740585327148,
        25.755084991455078
      ],
      "min": [
        -32.692955017089844,
        -3.8997361660003662,
        -39.400348663330078
      ],
      "type": "VEC3"
    },
    {
      "bufferView": 2,
      "byteOffset": 3931920,
      "componentType": 5126,
      "count": 65532,
      "max": [
        0.99987918138504028,
        0.99999690055847168,
        0.99989950656890869
      ],
      "min": [
        -0.99814563989639282,
        -0.98146563768386841,
        -0.99776744842529297
      ],
      "type": "VEC3"
    },
    {
      "bufferView": 3,
      "byteOffset": 2097024,
      "componentType": 5126,
      "count": 65532,
      "max": [
        0.63137257099151611,
        0.68627452850341797,
        0.67450982332229614,
        1
      ],
      "min": [
        0.16078431904315948,
        0.16862745583057404,
        0.098039217293262482,
        1
      ],
      "type": "VEC4"
    },
    {
      "bufferView": 1,
      "byteOffset": 1048512,
      "componentType": 5126,
      "count": 65532,
      "max": [
        0.99973529577255249,
        0.99999809265136719
      ],
      "min": [
        4.3488689698278904e-06,
        0.00025571358855813742
      ],
      "type": "VEC2"
    },
    {
      "bufferView": 0,
      "byteOffset": 1578168,
      "componentType": 5125,
      "count": 198846,
      "max": [
        65531
      ],
      "min": [
        0
      ],
      "type": "SCALAR"
    },
    {
      "bufferView": 2,
      "byteOffset": 4718304,
      "componentType": 5126,
      "count": 65532,
      "max": [
        64.855323791503906,
        10.995999336242676,
        98.114700317382812
      ],
      "min": [
        -29.507350921630859,
        0.54319411516189575,
        18.367733001708984
      ],
      "type": "VEC3"
    },
    {
      "bufferView": 2,
      "byteOffset": 5504688,
      "componentType": 5126,
      "count": 65532,
      "max": [
        0.99992901086807251,
        0.99999970197677612,
        0.99921160936355591
      ],
      "min": [
        -0.99998825788497925,
        -0.99736690521240234,
        -0.99989748001098633
      ],
      "type": "VEC3"
    },
    {
      "bufferView": 3,
      "byteOffset": 3145536,
      "componentType": 5126,
      "count": 65532,
      "max": [
        0.65490198135375977,
        0.64313727617263794,
        0.63137257099151611,
        1
      ],
      "min": [
        0.14117647707462311,
        0.17647059261798859,
        0.10196078568696976,
        1
      ],
      "type": "VEC4"
    },
    {
      "bufferView": 1,
      "byteOffset": 1572768,
      "componentType": 5126,
      "count": 65532,
      "max": [
        0.99974286556243896,
        0.9999995231628418
      ],
      "min": [
        9.7526353783905506e-06,
        9.0942165115848184e-05
      ],
      "type": "VEC2"
    },
    {
      "bufferView": 0,
      "byteOffset": 2373552,
      "componentType": 5125,
      "count": 208977,
      "max": [
        65531
      ],
      "min": [
        0
      ],
      "type": "SCALAR"
    },
    {
      "bufferView": 2,
      "byteOffset": 6291072,
      "componentType": 5126,
      "count": 30219,
      "max": [
        65.926277160644531,
        16.060081481933594,
        131.31768798828125
      ],
      "min": [
        -25.595560073852539,
        6.7206215858459473,
        90.372016906738281
      ],
      "type": "VEC3"
    },
    {
      "bufferView": 2,
      "byteOffset": 6653700,
      "componentType": 5126,
      "count": 30219,
      "max": [
        0.9996524453163147,
        0.99998140335083008,
        0.99828273057937622
      ],
      "min": [
        -0.9991225004196167,
        -0.99746555089950562,
        -0.99977171421051025
      ],
      "type": "VEC3"
    },
    {
      "bufferView": 3,
      "byteOffset": 4194048,
      "componentType": 5126,
      "count": 30219,
      "max": [
        0.63137257099151611,
        0.63921570777893066,
        0.65490198135375977,
        1
      ],
      "min": [
        0.08235294371843338,
        0.11372549086809158,
        0.031372550874948502,
        1
      ],
      "type": "VEC4"
    },
    {
      "bufferView": 1,
      "byteOffset": 2097024,
      "componentType": 5126,
      "count": 30219,
      "max": [
        0.99969398975372314,
        0.99998509883880615
      ],
      "min": [
        5.0157832447439432e-05,
        4.8076268285512924e-05
      ],
      "type": "VEC2"
    },
    {
      "bufferView": 0,
      "byteOffset": 3209460,
      "componentType": 5125,
      "count": 97635,
      "max": [
        30218
      ],
      "min": [
        0
      ],
      "type": "SCALAR"
    }
  ],
  "asset": {
    "extras": {
      "author": "Mehmet Kozal (https://sketchfab.com/mkozal)",
      "license": "CC-BY-4.0 (http://creativecommons.org/licenses/by/4.0/)",
      "source": "https://sketchfab.com/3d-models/grass-f50b15df88294a4d977a66ccf953c776",
      "title": "Grass"
    },
    "generator": "Sketchfab-8.72.3",
    "version": "2.0"
  },
  "bufferViews": [
    {
      "buffer": 0,
      "byteLength": 3600000,
      "byteOffset": 0,
      "name": "floatBufferViews",
      "target": 34963
    },
    {
      "buffer": 0,
      "byteLength": 2338776,
      "byteOffset": 3600000,
      "byteStride": 8,
      "name": "floatBufferViews",
      "target": 34962
    },
    {
      "buffer": 0,
      "byteLength": 7016328,
      "byteOffset": 5938776,
      "byteStride": 12,
      "name": "floatBufferViews",
      "target": 34962
    },
    {
      "buffer": 0,
      "byteLength": 4677552,
      "byteOffset": 12955104,
      "byteStride": 16,
      "name": "floatBufferViews",
      "target": 34962
    }
  ],
  "buffers": [
    {
      "byteLength": 17632656,
      "uri": "scene.bin"
    }
  ],
  "extensionsUsed": [
    "KHR_materials_unlit"
  ],
  "images": [
    {
      "uri": "textures/material0_baseColor.jpeg"
    }
  ],
  "materials": [
    {
      "doubleSided": true,
      "emissiveFactor": [
        0,
        0,
        0
      ],
      "extensions": {
        "KHR_materials_unlit": {}
      },
      "name": "material0",
      "pbrMetallicRoughness": {
        "baseColorFactor": [
          1,
          1,
          1,
          1
        ],
        "baseColorTexture": {
          "index": 0,
          "texCoord": 0
        },
        "metallicFactor": 0,
        "roughnessFactor": 1
      }
    }
  ],
  "meshes": [
    {
      "name": "Model_material0_0",
      "primitives": [
        {
          "attributes": {
            "COLOR_0": 2,
            "NORMAL": 1,
            "POSITION": 0,
            "TEXCOORD_0": 3
          },
          "indices": 4,
          "material": 0,
          "mode": 4
        }
      ]
    },
    {
      "name": "Model_material0_0",
      "primitives": [
        {
          "attributes": {
            "COLOR_0": 7,
            "NORMAL": 6,
            "POSITION": 5,
            "TEXCOORD_0": 8
          },
          "indices": 9,
          "material": 0,
          "mode": 4
        }
      ]
    },
    {
      "name": "Model_material0_0",
      "primitives": [
        {
          "attributes": {
            "COLOR_0": 12,
            "NORMAL": 11,
            "POSITION": 10,
            "TEXCOORD_0": 13
          },
          "indices": 14,
          "material": 0,
          "mode": 4
        }
      ]
    },
    {
      "name": "Model_material0_0",
      "primitives": [
        {
          "attributes": {
            "COLOR_0": 17,
            "NORMAL": 16,
            "POSITION": 15,
            "TEXCOORD_0": 18
          },
          "indices": 19,
          "material": 0,
          "mode": 4
        }
      ]
    },
    {
      "name": "Model_material0_0",
      "primitives": [
        {
          "attributes": {
            "COLOR_0": 22,
            "NORMAL": 21,
            "POSITION": 20,
            "TEXCOORD_0": 23
          },
          "indices": 24,
          "material": 0,
          "mode": 4
        }
      ]
    }
  ],
  "nodes": [
    {
      "children": [
        1
      ],
      "name": "RootNode (gltf orientation matrix)",
      "rotation": [
        -0.70710678118654746,
        -0,
        -0,
        0.70710678118654757
      ]
    },
    {
      "children": [
        2
      ],
      "matrix": [
        0.99861395359039307,
        -0.05139484629034996,
        -0.011348610743880272,
        0,
        -0.0067768371663987637,
        0.088269688189029694,
        -0.99607354402542114,
        0,
        0.052194785326719284,
        0.99476981163024902,
        0.087799042463302612,
        0,
        -0.37164527177810669,
        -8.0189638137817383,
        5.1623849868774414,
        1
      ],
      "name": "RootNode (model correction matrix)"
    },
    {
      "children": [
        3
      ],
      "matrix": [
        1,
        0,
        0,
        0,
        0,
        -1,
        0,
        0,
        0,
        0,
        -1,
        0,
        0,
        0,
        0,
        1
      ],
      "name": "Grass.fbx"
    },
    {
      "children": [
        4
      ],
      "name": "RootNode"
    },
    {
      "children": [
        5,
        6,
        7,
        8,
        9
      ],
      "name": "Model"
    },
    {
      "mesh": 0,
      "name": "Model_material0_0"
    },
    {
      "mesh": 1,
      "name": "Model_material0_0"
    },
    {
      "mesh": 2,
      "name": "Model_material0_0"
    },
    {
      "mesh": 3,
      "name": "Model_material0_0"
    },
    {
      "mesh": 4,
      "name": "Model_material0_0"
    }
  ],
  "samplers": [
    {
      "magFilter": 9729,
      "minFilter": 9987,
      "wrapS": 10497,
      "wrapT": 10497
    }
  ],
  "scene": 0,
  "scenes": [
    {
      "name": "OSG_Scene",
      "nodes": [
        0
      ]
    }
  ],
  "textures": [
    {
      "sampler": 0,
      "source": 0
    }
  ]
}

